# xmcd
#
# Track frame offsets:
#	150
#	14294
#	28460
#	40570
#	51476
#	65351
#	74724
#	86360
#	98938
#	111759
#	123612
#	134259
#
# Disc length: 1930 seconds
#
# Revision: 0
# Processed by: cddbd v1.5.1PL0 Copyright (c) Steve Scherf et al.
# Submitted via: dBpowerAMP V4.0
#
DISCID=ac07880c
DTITLE=Ray Charles - The Classic Years
DYEAR=1900
DGENRE=Blues
TTITLE0=Baby Let Me Hold Your Hand
TTITLE1=Kiss Me Baby
TTITLE2=CC Rider
TTITLE3=I Wonder Who's Kissing Her Now
TTITLE4=I'm Going Down To The River
TTITLE5=All To Myself
TTITLE6=Ray Charles Blues
TTITLE7=Rockin Chair Blues
TTITLE8=Can Anyone Ask For Me
TTITLE9=Baby Tell Me What Ive Done
TTITLE10=Hey Now
TTITLE11=Theyre Crazy About Me
EXTD=
EXTT0=
EXTT1=
EXTT2=
EXTT3=
EXTT4=
EXTT5=
EXTT6=
EXTT7=
EXTT8=
EXTT9=
EXTT10=
EXTT11=
PLAYORDER=
